<?xml version="1.0" encoding="UTF-8"?>
<svg id="Capa_1" xmlns="http://www.w3.org/2000/svg" version="1.1" viewBox="0 0 38 24">
  <!-- Generator: Adobe Illustrator 29.3.0, SVG Export Plug-In . SVG Version: 2.1.0 Build 146)  -->
  <defs>
    <style>
      .st0 {
        fill: #666;
      }
    </style>
  </defs>
  <path class="st0" d="M3.8,22.3c-.6,0-1-.2-1.4-.6-.4-.4-.6-.9-.6-1.4v-11.3c-.3-.2-.5-.4-.7-.7s-.3-.6-.3-1v-3c0-.6.2-1,.6-1.4s.9-.6,1.4-.6h16c.6,0,1,.2,1.4.6s.6.9.6,1.4v3c0,.4,0,.7-.3,1s-.4.5-.7.7v11.3c0,.6-.2,1-.6,1.4s-.9.6-1.4.6H3.8ZM2.8,7.2h16v-3H2.8v3ZM8.8,14.3h4c.3,0,.5,0,.7-.3s.3-.4.3-.7,0-.5-.3-.7-.4-.3-.7-.3h-4c-.3,0-.5,0-.7.3s-.3.4-.3.7,0,.5.3.7.4.3.7.3Z"/>
  <path class="st0" d="M30,9.7l5,5h-10l5-5Z"/>
</svg>